<svg xmlns="http://www.w3.org/2000/svg" version="1.1" xmlns:xlink="http://www.w3.org/1999/xlink" viewBox="0 0 13.705299282164075 13.510489369429834"><g transform="matrix(0.8562609597081133,0,0,0.8562609597081133,1.9559856707834644,10.63732079991168)"><rect width="15.9732816697969" height="15.9732816697969" x="-2.2679823876328253" y="-12.520394325796957" fill="#ffffff"></rect><g transform="matrix(1,0,0,1,0,0)" clip-path="url(#SvgjsClipPath56788)"><g clip-path="url(#SvgjsClipPath567838b9f6152-d6ec-4752-b3e9-4a5d3092d47b)"><path d=" M 6.255859288738815 -2.9947455575648023 C 6.25585930016788 -2.8523189099479636 6.199265945255207 -2.715728800513583 6.098535104289886 -2.6150379476937458 C 5.997804263324566 -2.5143470948739095 5.861191693758779 -2.457807978748855 5.7187650566301755 -2.4578645419544563 C 5.5763384187581275 -2.457807978551906 5.43972584911405 -2.5143470944877686 5.33899500800928 -2.615037947168106 C 5.238264166904538 -2.715728799848441 5.181670811802714 -2.852318909204447 5.18167082303452 -2.9947455575648023 L 5.18167082303452 -7.410261424232207 C 5.18167082303452 -7.552707671382315 5.238257374386313 -7.68931969110373 5.338982081700739 -7.790044398418149 C 5.439706789015152 -7.890769105732565 5.576318808736546 -7.947355657084358 5.71876505588666 -7.947355657084358 C 5.861211303036789 -7.947355657084358 5.997823322758183 -7.890769105732565 6.098548030072595 -7.790044398418149 C 6.199272737387022 -7.68931969110373 6.255859288738815 -7.552707671382315 6.255859288738815 -7.410261424232207 Z" fill="#23953c" transform="matrix(1,0,0,1,0,0)" fill-rule="evenodd"></path></g><g clip-path="url(#SvgjsClipPath567838b9f6152-d6ec-4752-b3e9-4a5d3092d47b)"><path d=" M 3.51090051393194 -0.25 C 1.995102667505247 -0.2501177501632128 0.7663681690356906 -1.4789477065645897 0.7663681736092195 -2.9947455575648005 C 0.7663116102064244 -3.137172194693438 0.8228507261423224 -3.2737847643375098 0.9235415788226787 -3.3745156054422463 C 1.0242324315030351 -3.475246446546981 1.1608225408590358 -3.5318398016487897 1.3032491892193883 -3.531839790416952 C 1.4457323863051281 -3.5318398016443044 1.5823767282970098 -3.47522398264716 1.6831075669658675 -3.3744531555548596 C 1.7838384056347112 -3.2736823284625576 1.8403999854684683 -3.137015526181167 1.8403434220714443 -2.9945323403226984 C 1.8404611680762597 -2.0719924023786493 2.588360568474843 -1.324188458189905 3.5109005139324747 -1.3241884657042995 C 3.953959803017608 -1.3241319133669105 4.378895002044974 -1.5000822964164175 4.692225215814961 -1.8133325382073835 C 5.005555429584922 -2.126582779998351 5.181614277914622 -2.5514730512361403 5.181670823034562 -2.994532340322702 C 5.181614259637496 -3.1370155261810373 5.238175839471225 -3.2736823284624412 5.338906678140041 -3.374453155554768 C 5.439637516808884 -3.475223982647095 5.576281858800738 -3.5318398016442707 5.718765055886576 -3.531839790416954 C 5.861211303036831 -3.5318397904169556 5.997823322758225 -3.4752532390651645 6.098548030072652 -3.3745285317507463 C 6.199272737387064 -3.273803824436329 6.255859288738871 -3.137191804714914 6.255859288738871 -2.9947455575648023 C 6.25562381884774 -1.4788787263273502 5.026767358887207 -0.250117718942489 3.51090051393201 -0.25 Z" fill="#23953c" transform="matrix(1,0,0,1,0,0)" fill-rule="evenodd"></path></g><g clip-path="url(#SvgjsClipPath567838b9f6152-d6ec-4752-b3e9-4a5d3092d47b)"><path d=" M 10.671375155406242 -2.9949587748069035 C 10.671257436465241 -1.4790919298543646 9.442496429081608 -0.25023546989262435 7.926629597844084 -0.25 C 7.7841833506913085 -0.2500000000000018 7.647571330969915 -0.30658655135179025 7.5468466236554885 -0.4073112586662102 C 7.446121916341076 -0.5080359659806266 7.3895353649892686 -0.6446479857020417 7.3895353649892686 -0.7870942328521533 C 7.389535353555671 -0.9295774291605348 7.446151172355042 -1.0662217712343676 7.54692199930153 -1.1669526100490817 C 7.647692826248019 -1.2676834488637976 7.7843596284475325 -1.3242450288953833 7.926842814306098 -1.3241884657046104 C 8.369902104170063 -1.3242450108242423 8.79479237540786 -1.5003038591539397 9.108042617198834 -1.8136340729239162 C 9.421292858989778 -2.1269642866938963 9.597243242039285 -2.5518994857212647 9.597186689701905 -2.9949587748069018 C 9.597068994989023 -3.917449966409639 8.84933398414645 -4.66528042466121 7.926842815082255 -4.665515866667402 C 7.784189928707537 -4.66562889251693 7.647427770275595 -4.722420559941732 7.546656935907426 -4.823391336441577 C 7.445886101539271 -4.924362112941421 7.3893656299700545 -5.061236572799534 7.3895353649892686 -5.203889402972159 L 7.3895353649892686 -7.410261424232207 C 7.3895353649892686 -7.552707671382315 7.446121916341076 -7.68931969110373 7.5468466236554885 -7.790044398418149 C 7.647571330969915 -7.890769105732565 7.7841833506913085 -7.947355657084358 7.926629597841424 -7.947355657084358 C 8.069056246201775 -7.947355668316174 8.205646355557791 -7.890762313214339 8.30633720823812 -7.790031472109587 C 8.407028060918446 -7.689300631004831 8.463567176854315 -7.55268806136075 8.46351061345148 -7.410261424232207 L 8.46351061345148 -5.687039673572783 C 9.74703766979388 -5.430607375042135 10.671127725116314 -4.303851118306148 10.671375155406242 -2.9949587748069053 Z" fill="#0e0904" transform="matrix(1,0,0,1,0,0)" fill-rule="evenodd"></path></g><g clip-path="url(#SvgjsClipPath567838b9f6152-d6ec-4752-b3e9-4a5d3092d47b)"><path d=" M 7.926629597841424 -2.457864541954752 C 7.78420296071289 -2.457807978551906 7.647590391068813 -2.5143470944877686 7.546859549964044 -2.615037947168106 C 7.446128708859302 -2.715728799848441 7.389535353757477 -2.852318909204447 7.3895353649892686 -2.9947455575648023 C 7.3895353649892686 -3.1371918047149103 7.446121916341076 -3.2738038244363254 7.5468466236554885 -3.3745285317507427 C 7.647571330969915 -3.4752532390651627 7.7841833506913085 -3.5318397904169503 7.926629597841424 -3.5318397904169503 L 7.926629597841424 -3.5318397904169503 C 8.069056246201775 -3.5318398016487667 8.205646355557791 -3.475246446546933 8.30633720823812 -3.3745156054421805 C 8.407028060918446 -3.273784764337427 8.463567176854315 -3.1371721946933464 8.46351061345148 -2.9947455575648023 C 8.46351061345148 -2.8523558591432145 8.40694652599463 -2.7157980720616255 8.306261804669592 -2.615113350736613 C 8.205577083344583 -2.5144286294116016 8.069019296263011 -2.4578645419547502 7.926629597841424 -2.457864541954752 Z" fill="#8c1627" transform="matrix(1,0,0,1,0,0)" fill-rule="evenodd"></path></g><g clip-path="url(#SvgjsClipPath567838b9f6152-d6ec-4752-b3e9-4a5d3092d47b)"><path d=" M 7.926629597841424 -10.155006981797008 C 8.654581380121423 -10.155006981797012 9.352718152600115 -9.86582926224497 9.867457794227134 -9.351089620617934 C 10.382197435854179 -8.8363499789909 10.671375155406242 -8.138213206512226 10.671375155406242 -7.410261424232207 C 10.671375166835293 -7.267834776615366 10.61478181192262 -7.1312446671809875 10.5140509709573 -7.03055381436115 C 10.413320129991993 -6.929862961541312 10.276707560426207 -6.873323845416259 10.134280923297602 -6.873380408621859 C 9.991797725468249 -6.873380397394804 9.855153383476381 -6.929996216391951 9.75442254480751 -7.03076704348425 C 9.653691706138666 -7.131537870576551 9.59713012630491 -7.268204672857941 9.597186689701934 -7.410687858716408 C 9.597068943697131 -8.333227796660461 8.849169543298547 -9.081031740849207 7.9266295978409165 -9.081031733334807 C 7.483570308755783 -9.081088285672198 7.058635109728417 -8.905137902622691 6.745304895958429 -8.591887660831727 C 6.431974682188455 -8.278637419040757 6.2559158338587695 -7.85374714780297 6.255859288738815 -7.410687858716408 C 6.255915852135839 -7.268204672857927 6.199354272302082 -7.131537870576537 6.09862343363321 -7.030767043484237 C 5.997892594964367 -6.92999621639194 5.861248252972471 -6.873380397394804 5.71876505588666 -6.8733804086221575 C 5.5763384187581275 -6.873323845219311 5.43972584911405 -6.929862961155173 5.33899500800928 -7.030553813835512 C 5.238264166904538 -7.131244666515843 5.181670811802714 -7.267834775871851 5.18167082303452 -7.410261424232207 C 5.181788573199892 -8.926177027293203 6.41071399021332 -10.155006986371871 7.92662959784445 -10.155006981797008 Z" fill="#23953c" transform="matrix(1,0,0,1,0,0)" fill-rule="evenodd"></path></g><g clip-path="url(#SvgjsClipPath567838b9f6152-d6ec-4752-b3e9-4a5d3092d47b)"><path d=" M 3.51090051393194 -7.947355657084358 C 3.6533467610820543 -7.947355657084358 3.7899587808034485 -7.890769105732565 3.890683488117861 -7.790044398418149 C 3.991408195432287 -7.68931969110373 4.047994746784081 -7.552707671382315 4.047994746784081 -7.410261424232207 C 4.047994758213145 -7.267834776615366 3.9914014033004723 -7.1312446671809875 3.890670562335152 -7.03055381436115 C 3.7899397213698314 -6.929862961541312 3.653327151804058 -6.873323845416259 3.510900514675441 -6.873380408621859 L 3.51090051393194 -6.873380408621859 C 3.368510815510352 -6.87338040862215 3.231953028428766 -6.929944496079005 3.1312683071037557 -7.030629217404016 C 3.0305835857787313 -7.131313938729029 2.9740194983218835 -7.267871725810618 2.9740194983218835 -7.410261424232207 C 2.9739629349190606 -7.552688061360845 3.0305020508549583 -7.689300631004919 3.131192903535315 -7.7900314721096535 C 3.2318837562156713 -7.890762313214388 3.3684738655716857 -7.947355668316199 3.510900513932038 -7.947355657084358 Z" fill="#8c1627" transform="matrix(1,0,0,1,0,0)" fill-rule="evenodd"></path></g><g clip-path="url(#SvgjsClipPath567838b9f6152-d6ec-4752-b3e9-4a5d3092d47b)"><path d=" M 0.7661549563671208 -7.410261424232207 C 0.7661549455197975 -8.138213165612335 1.0553326546687993 -8.836349942400089 1.5700722886256129 -9.351089591697342 C 2.08481192258244 -9.865829240994593 2.7829486907520335 -10.155006970949689 3.510900473032061 -10.155006981797008 C 3.6533271510604726 -10.155063545199857 3.7899397207045498 -10.098524429263993 3.8906705618093196 -9.997833576583655 C 3.991401402914062 -9.89714272390332 4.047994758015886 -9.760552614547315 4.047994746784081 -9.618125966186959 C 4.047994758217678 -9.475642769878572 3.9913789394183214 -9.338998427804741 3.8906081124718335 -9.238267588990027 C 3.789837285525345 -9.137536750175308 3.6531704833258023 -9.08097517014372 3.510687297467265 -9.081031733334498 C 3.067628007603272 -9.080975188214861 2.642737736365474 -8.904916339885167 2.3294874945745017 -8.591586126115187 C 2.016237252783557 -8.278255912345209 1.84028686973405 -7.85332071331784 1.8403434220714303 -7.410261424232203 C 1.8402868686271243 -6.967221743877424 2.0162440551217373 -6.542308465219942 2.3295004259633725 -6.229012107606665 C 2.642756796804994 -5.915715749993391 3.0676476127267494 -5.739704328762063 3.5106872966904183 -5.739704332371702 C 3.653340183065784 -5.739591306522178 3.79010234149774 -5.682799639097376 3.890873175865909 -5.581828862597532 C 3.9916440102340642 -5.480858086097687 4.0481644818032665 -5.343983626239575 4.047994746784067 -5.201330796066949 L 4.047994746784067 -2.9947455575648005 C 4.047994758213116 -2.852318909947962 3.991401403300444 -2.715728800513581 3.8906705623351234 -2.615037947693744 C 3.789939721369817 -2.5143470948739077 3.6533271518040302 -2.457807978748855 3.5109005146754266 -2.4578645419544545 C 3.3685108155103234 -2.4578645419547485 3.2319530284287517 -2.5144286294116 3.1312683071037415 -2.6151133507366113 C 3.0305835857787033 -2.7157980720616237 2.9740194983218555 -2.8523558591432128 2.9740194983218555 -2.9947455575648005 L 2.9740194983218555 -4.718180525466322 C 1.690446900689114 -4.974536940702422 0.7663190573101468 -6.101339272957638 0.7661549563671208 -7.410261424232207 Z" fill="#0e0904" transform="matrix(1,0,0,1,0,0)" fill-rule="evenodd"></path></g></g><g><path d=" M 0.0915 1.0739999999999998 L 0.0915 0.008999999999999897 L 0.5505 0.008999999999999897 Q 0.6285000000000001 0.008999999999999897 0.6945 0.04049999999999976 Q 0.7605000000000001 0.07199999999999984 0.8085 0.12524999999999986 Q 0.8565 0.17849999999999977 0.88275 0.24449999999999983 Q 0.909 0.3104999999999998 0.909 0.3779999999999998 Q 0.909 0.4724999999999998 0.86475 0.5564999999999999 Q 0.8205 0.6404999999999998 0.74175 0.6937499999999999 Q 0.663 0.7469999999999999 0.558 0.7469999999999999 L 0.384 0.7469999999999999 L 0.384 1.0739999999999998 L 0.0915 1.0739999999999998 M 0.384 0.4919999999999999 L 0.5385 0.4919999999999999 Q 0.5565 0.4919999999999999 0.5730000000000001 0.4814999999999998 Q 0.5895 0.47099999999999986 0.60075 0.4454999999999998 Q 0.612 0.4199999999999998 0.612 0.3779999999999998 Q 0.612 0.33299999999999985 0.5992500000000001 0.3082499999999998 Q 0.5865 0.28349999999999986 0.56775 0.2737499999999998 Q 0.549 0.2639999999999998 0.531 0.2639999999999998 L 0.384 0.2639999999999998 L 0.384 0.4919999999999999 M 1.784978759765625 0.8189999999999998 L 1.784978759765625 1.0739999999999998 L 1.025978759765625 1.0739999999999998 L 1.025978759765625 0.008999999999999897 L 1.771478759765625 0.008999999999999897 L 1.771478759765625 0.2639999999999998 L 1.318478759765625 0.2639999999999998 L 1.318478759765625 0.4139999999999998 L 1.705478759765625 0.4139999999999998 L 1.705478759765625 0.6509999999999998 L 1.318478759765625 0.6509999999999998 L 1.318478759765625 0.8189999999999998 L 1.784978759765625 0.8189999999999998 M 1.9214560546875 1.0739999999999998 L 1.9214560546875 0.008999999999999897 L 2.4104560546875 0.008999999999999897 Q 2.4884560546875 0.008999999999999897 2.5544560546875 0.04049999999999976 Q 2.6204560546874998 0.07199999999999984 2.6684560546875 0.12524999999999986 Q 2.7164560546875 0.17849999999999977 2.7427060546875 0.24449999999999983 Q 2.7689560546875 0.3104999999999998 2.7689560546875 0.3779999999999998 Q 2.7689560546875 0.4394999999999998 2.7509560546875003 0.49649999999999983 Q 2.7329560546875 0.5534999999999999 2.6984560546875 0.6007499999999999 Q 2.6639560546875 0.6479999999999999 2.6159560546875 0.6824999999999999 L 2.8409560546875 1.0739999999999998 L 2.5199560546875 1.0739999999999998 L 2.3324560546875 0.7469999999999999 L 2.2139560546875 0.7469999999999999 L 2.2139560546875 1.0739999999999998 L 1.9214560546875 1.0739999999999998 M 2.2139560546875 0.4919999999999999 L 2.3984560546875002 0.4919999999999999 Q 2.4164560546875 0.4919999999999999 2.4329560546874998 0.4784999999999998 Q 2.4494560546875 0.46499999999999986 2.4607060546875 0.4394999999999998 Q 2.4719560546875 0.4139999999999998 2.4719560546875 0.3779999999999998 Q 2.4719560546875 0.3404999999999998 2.4592060546875 0.31574999999999986 Q 2.4464560546875003 0.2909999999999998 2.4277060546875 0.27749999999999986 Q 2.4089560546874997 0.2639999999999998 2.3909560546875 0.2639999999999998 L 2.2139560546875 0.2639999999999998 L 2.2139560546875 0.4919999999999999 M 3.6929377441406253 0.8189999999999998 L 3.6929377441406253 1.0739999999999998 L 2.933937744140625 1.0739999999999998 L 2.933937744140625 0.008999999999999897 L 3.6794377441406247 0.008999999999999897 L 3.6794377441406247 0.2639999999999998 L 3.226437744140625 0.2639999999999998 L 3.226437744140625 0.4139999999999998 L 3.613437744140625 0.4139999999999998 L 3.613437744140625 0.6509999999999998 L 3.226437744140625 0.6509999999999998 L 3.226437744140625 0.8189999999999998 L 3.6929377441406253 0.8189999999999998 M 3.8294150390625 1.0739999999999998 L 3.8294150390625 0.008999999999999897 L 4.3184150390625 0.008999999999999897 Q 4.3964150390625 0.008999999999999897 4.4624150390625 0.04049999999999976 Q 4.5284150390625 0.07199999999999984 4.5764150390625 0.12524999999999986 Q 4.6244150390625 0.17849999999999977 4.6506650390625 0.24449999999999983 Q 4.6769150390625 0.3104999999999998 4.6769150390625 0.3779999999999998 Q 4.6769150390625 0.4394999999999998 4.6589150390625 0.49649999999999983 Q 4.6409150390625005 0.5534999999999999 4.6064150390625 0.6007499999999999 Q 4.5719150390625 0.6479999999999999 4.5239150390625 0.6824999999999999 L 4.7489150390625 1.0739999999999998 L 4.4279150390625 1.0739999999999998 L 4.2404150390625 0.7469999999999999 L 4.1219150390625 0.7469999999999999 L 4.1219150390625 1.0739999999999998 L 3.8294150390625 1.0739999999999998 M 4.1219150390625 0.4919999999999999 L 4.3064150390625 0.4919999999999999 Q 4.3244150390625 0.4919999999999999 4.3409150390625 0.4784999999999998 Q 4.3574150390625 0.46499999999999986 4.3686650390625 0.4394999999999998 Q 4.3799150390625 0.4139999999999998 4.3799150390625 0.3779999999999998 Q 4.3799150390625 0.3404999999999998 4.3671650390625 0.31574999999999986 Q 4.3544150390625 0.2909999999999998 4.3356650390625 0.27749999999999986 Q 4.3169150390625 0.2639999999999998 4.2989150390625 0.2639999999999998 L 4.1219150390625 0.2639999999999998 L 4.1219150390625 0.4919999999999999 M 5.087896728515625 0.008999999999999897 L 5.414896728515625 0.008999999999999897 L 5.753896728515625 1.0739999999999998 L 5.456896728515625 1.0739999999999998 L 5.392396728515625 0.8654999999999998 L 5.108896728515625 0.8654999999999998 L 5.045896728515625 1.0739999999999998 L 4.747396728515625 1.0739999999999998 L 5.087896728515625 0.008999999999999897 M 5.345896728515625 0.6704999999999999 L 5.251396728515625 0.2954999999999999 L 5.152396728515625 0.6704999999999999 L 5.345896728515625 0.6704999999999999 M 6.893804443359375 0.8189999999999998 L 6.893804443359375 1.0739999999999998 L 6.134804443359375 1.0739999999999998 L 6.134804443359375 0.008999999999999897 L 6.880304443359375 0.008999999999999897 L 6.880304443359375 0.2639999999999998 L 6.427304443359375 0.2639999999999998 L 6.427304443359375 0.4139999999999998 L 6.814304443359375 0.4139999999999998 L 6.814304443359375 0.6509999999999998 L 6.427304443359375 0.6509999999999998 L 6.427304443359375 0.8189999999999998 L 6.893804443359375 0.8189999999999998 M 7.67528173828125 0.3569999999999999 Q 7.67528173828125 0.3569999999999999 7.64978173828125 0.34199999999999986 Q 7.62428173828125 0.32699999999999985 7.5822817382812495 0.3082499999999998 Q 7.54028173828125 0.28949999999999987 7.49078173828125 0.27449999999999986 Q 7.44128173828125 0.25949999999999984 7.39328173828125 0.25949999999999984 Q 7.35578173828125 0.25949999999999984 7.33178173828125 0.27149999999999985 Q 7.30778173828125 0.28349999999999986 7.30778173828125 0.31199999999999983 Q 7.30778173828125 0.33899999999999986 7.33178173828125 0.3554999999999998 Q 7.35578173828125 0.3719999999999998 7.40003173828125 0.38549999999999984 Q 7.44428173828125 0.3989999999999998 7.50578173828125 0.41849999999999987 Q 7.60478173828125 0.4484999999999998 7.6767817382812495 0.4874999999999998 Q 7.7487817382812505 0.5264999999999999 7.78778173828125 0.5872499999999998 Q 7.82678173828125 0.6479999999999999 7.82678173828125 0.7484999999999998 Q 7.82678173828125 0.8444999999999998 7.79228173828125 0.9097499999999998 Q 7.75778173828125 0.9749999999999999 7.69928173828125 1.0139999999999998 Q 7.64078173828125 1.053 7.56878173828125 1.07025 Q 7.49678173828125 1.0875 7.42178173828125 1.0875 Q 7.34528173828125 1.0875 7.26203173828125 1.0717499999999998 Q 7.17878173828125 1.0559999999999998 7.10078173828125 1.0282499999999999 Q 7.02278173828125 1.0005 6.95828173828125 0.9629999999999999 L 7.08428173828125 0.7064999999999999 Q 7.08428173828125 0.7064999999999999 7.11428173828125 0.7244999999999998 Q 7.14428173828125 0.7424999999999998 7.19378173828125 0.7649999999999999 Q 7.24328173828125 0.7874999999999999 7.30403173828125 0.8054999999999999 Q 7.36478173828125 0.8234999999999999 7.42628173828125 0.8234999999999999 Q 7.47428173828125 0.8234999999999999 7.49303173828125 0.8107499999999999 Q 7.51178173828125 0.7979999999999998 7.51178173828125 0.7769999999999999 Q 7.51178173828125 0.7454999999999998 7.47878173828125 0.7282499999999998 Q 7.44578173828125 0.7109999999999999 7.39253173828125 0.6952499999999998 Q 7.33928173828125 0.6794999999999998 7.27478173828125 0.6584999999999999 Q 7.18178173828125 0.6269999999999998 7.12178173828125 0.5872499999999998 Q 7.06178173828125 0.5474999999999999 7.03328173828125 0.4927499999999998 Q 7.00478173828125 0.43799999999999983 7.00478173828125 0.3599999999999999 Q 7.00478173828125 0.24149999999999983 7.06028173828125 0.1619999999999998 Q 7.11578173828125 0.0824999999999998 7.20653173828125 0.04124999999999979 Q 7.29728173828125 -2.220446049250313e-16 7.40228173828125 -2.220446049250313e-16 Q 7.48028173828125 -2.220446049250313e-16 7.55303173828125 0.018749999999999822 Q 7.62578173828125 0.03749999999999987 7.68953173828125 0.06449999999999978 Q 7.75328173828125 0.0914999999999998 7.80128173828125 0.11549999999999983 L 7.67528173828125 0.3569999999999999 M 8.785288330078124 0.2639999999999998 L 8.479288330078125 0.2639999999999998 L 8.479288330078125 1.0739999999999998 L 8.186788330078125 1.0739999999999998 L 8.186788330078125 0.2639999999999998 L 7.879288330078125 0.2639999999999998 L 7.879288330078125 0.008999999999999897 L 8.785288330078124 0.008999999999999897 L 8.785288330078124 0.2639999999999998 M 9.04031982421875 0.008999999999999897 L 9.36731982421875 0.008999999999999897 L 9.70631982421875 1.0739999999999998 L 9.40931982421875 1.0739999999999998 L 9.34481982421875 0.8654999999999998 L 9.06131982421875 0.8654999999999998 L 8.99831982421875 1.0739999999999998 L 8.69981982421875 1.0739999999999998 L 9.04031982421875 0.008999999999999897 M 9.29831982421875 0.6704999999999999 L 9.20381982421875 0.2954999999999999 L 9.10481982421875 0.6704999999999999 L 9.29831982421875 0.6704999999999999 M 10.526804443359374 0.2639999999999998 L 10.220804443359375 0.2639999999999998 L 10.220804443359375 1.0739999999999998 L 9.928304443359375 1.0739999999999998 L 9.928304443359375 0.2639999999999998 L 9.620804443359376 0.2639999999999998 L 9.620804443359376 0.008999999999999897 L 10.526804443359374 0.008999999999999897 L 10.526804443359374 0.2639999999999998 M 11.392339599609375 0.8189999999999998 L 11.392339599609375 1.0739999999999998 L 10.633339599609375 1.0739999999999998 L 10.633339599609375 0.008999999999999897 L 11.378839599609375 0.008999999999999897 L 11.378839599609375 0.2639999999999998 L 10.925839599609375 0.2639999999999998 L 10.925839599609375 0.4139999999999998 L 11.312839599609376 0.4139999999999998 L 11.312839599609376 0.6509999999999998 L 10.925839599609375 0.6509999999999998 L 10.925839599609375 0.8189999999999998 L 11.392339599609375 0.8189999999999998" fill="#ed9200" fill-rule="nonzero"></path></g><g></g></g><defs><clipPath id="SvgjsClipPath56788"><path d=" M 0.7661549563671208 -10.155006981797008 h 9.905006981797008 v 9.905006981797008 h -9.905006981797008 Z"></path></clipPath><clipPath id="SvgjsClipPath567838b9f6152-d6ec-4752-b3e9-4a5d3092d47b"><path d=" M 0.7661549563671208 -10.155006981797008 L 10.67116193816413 -10.155006981797008 L 10.67116193816413 -0.25 L 0.7661549563671208 -0.25 Z"></path></clipPath></defs></svg>